TITLE ""
FILE "Disc3Track41.mp3" MP3
  TRACK 01 AUDIO
    TITLE "Disc3Track41_01"
    INDEX 01 00:00:00
  TRACK 02 AUDIO
    TITLE "Disc3Track41_02"
    INDEX 01 00:00:75
  TRACK 03 AUDIO
    TITLE "Disc3Track41_03"
    INDEX 01 00:03:63
  TRACK 04 AUDIO
    TITLE "Disc3Track41_04"
    INDEX 01 00:05:02
  TRACK 05 AUDIO
    TITLE "Disc3Track41_05"
    INDEX 01 00:06:56
  TRACK 06 AUDIO
    TITLE "Disc3Track41_06"
    INDEX 01 00:07:14
  TRACK 07 AUDIO
    TITLE "Disc3Track41_07"
    INDEX 01 00:08:37
  TRACK 08 AUDIO
    TITLE "Disc3Track41_08"
    INDEX 01 00:10:19
  TRACK 09 AUDIO
    TITLE "Disc3Track41_09"
    INDEX 01 00:11:41
  TRACK 10 AUDIO
    TITLE "Disc3Track41_10"
    INDEX 01 00:15:16
  TRACK 11 AUDIO
    TITLE "Disc3Track41_11"
    INDEX 01 00:15:47
  TRACK 12 AUDIO
    TITLE "Disc3Track41_12"
    INDEX 01 00:17:01
  TRACK 13 AUDIO
    TITLE "Disc3Track41_13"
    INDEX 01 00:18:28
  TRACK 14 AUDIO
    TITLE "Disc3Track41_14"
    INDEX 01 00:19:57
  TRACK 15 AUDIO
    TITLE "Disc3Track41_15"
    INDEX 01 00:20:23
  TRACK 16 AUDIO
    TITLE "Disc3Track41_16"
    INDEX 01 00:21:44
  TRACK 17 AUDIO
    TITLE "Disc3Track41_17"
    INDEX 01 00:25:04
  TRACK 18 AUDIO
    TITLE "Disc3Track41_18"
    INDEX 01 00:26:21
  TRACK 19 AUDIO
    TITLE "Disc3Track41_19"
    INDEX 01 00:28:46
  TRACK 20 AUDIO
    TITLE "Disc3Track41_20"
    INDEX 01 00:29:12
  TRACK 21 AUDIO
    TITLE "Disc3Track41_21"
    INDEX 01 00:30:37
  TRACK 22 AUDIO
    TITLE "Disc3Track41_22"
    INDEX 01 00:33:08
  TRACK 23 AUDIO
    TITLE "Disc3Track41_23"
    INDEX 01 00:34:33
  TRACK 24 AUDIO
    TITLE "Disc3Track41_24"
    INDEX 01 00:34:64
  TRACK 25 AUDIO
    TITLE "Disc3Track41_25"
    INDEX 01 00:36:24
  TRACK 26 AUDIO
    TITLE "Disc3Track41_26"
    INDEX 01 00:37:58
  TRACK 27 AUDIO
    TITLE "Disc3Track41_27"
    INDEX 01 00:39:18
  TRACK 28 AUDIO
    TITLE "Disc3Track41_28"
    INDEX 01 00:43:26
  TRACK 29 AUDIO
    TITLE "Disc3Track41_29"
    INDEX 01 00:43:57
  TRACK 30 AUDIO
    TITLE "Disc3Track41_30"
    INDEX 01 00:45:34
  TRACK 31 AUDIO
    TITLE "Disc3Track41_31"
    INDEX 01 00:46:46
  TRACK 32 AUDIO
    TITLE "Disc3Track41_32"
    INDEX 01 00:48:25
  TRACK 33 AUDIO
    TITLE "Disc3Track41_33"
    INDEX 01 00:48:64
  TRACK 34 AUDIO
    TITLE "Disc3Track41_34"
    INDEX 01 00:50:06
  TRACK 35 AUDIO
    TITLE "Disc3Track41_35"
    INDEX 01 00:52:40
  TRACK 36 AUDIO
    TITLE "Disc3Track41_36"
    INDEX 01 00:53:54
  TRACK 37 AUDIO
    TITLE "Disc3Track41_37"
    INDEX 01 00:56:70
  TRACK 38 AUDIO
    TITLE "Disc3Track41_38"
    INDEX 01 00:57:26
  TRACK 39 AUDIO
    TITLE "Disc3Track41_39"
    INDEX 01 00:58:49
  TRACK 40 AUDIO
    TITLE "Disc3Track41_40"
    INDEX 01 00:59:50
  TRACK 41 AUDIO
    TITLE "Disc3Track41_41"
    INDEX 01 01:00:73
  TRACK 42 AUDIO
    TITLE "Disc3Track41_42"
    INDEX 01 01:01:33
  TRACK 43 AUDIO
    TITLE "Disc3Track41_43"
    INDEX 01 01:02:54
  TRACK 44 AUDIO
    TITLE "Disc3Track41_44"
    INDEX 01 01:04:14
  TRACK 45 AUDIO
    TITLE "Disc3Track41_45"
    INDEX 01 01:05:37
  TRACK 46 AUDIO
    TITLE "Disc3Track41_46"
    INDEX 01 01:08:32
  TRACK 47 AUDIO
    TITLE "Disc3Track41_47"
    INDEX 01 01:08:63
  TRACK 48 AUDIO
    TITLE "Disc3Track41_48"
    INDEX 01 01:10:23
  TRACK 49 AUDIO
    TITLE "Disc3Track41_49"
    INDEX 01 01:11:40
  TRACK 50 AUDIO
    TITLE "Disc3Track41_50"
    INDEX 01 01:13:01
  TRACK 51 AUDIO
    TITLE "Disc3Track41_51"
    INDEX 01 01:13:33
  TRACK 52 AUDIO
    TITLE "Disc3Track41_52"
    INDEX 01 01:14:69
  TRACK 53 AUDIO
    TITLE "Disc3Track41_53"
    INDEX 01 01:15:75
  TRACK 54 AUDIO
    TITLE "Disc3Track41_54"
    INDEX 01 01:17:38
  TRACK 55 AUDIO
    TITLE "Disc3Track41_55"
    INDEX 01 01:18:06
  TRACK 56 AUDIO
    TITLE "Disc3Track41_56"
    INDEX 01 01:19:31
  TRACK 57 AUDIO
    TITLE "Disc3Track41_57"
    INDEX 01 01:20:39
  TRACK 58 AUDIO
    TITLE "Disc3Track41_58"
    INDEX 01 01:21:64
  TRACK 59 AUDIO
    TITLE "Disc3Track41_59"
    INDEX 01 01:24:48
  TRACK 60 AUDIO
    TITLE "Disc3Track41_60"
    INDEX 01 01:25:03
  TRACK 61 AUDIO
    TITLE "Disc3Track41_61"
    INDEX 01 01:26:20
  TRACK 62 AUDIO
    TITLE "Disc3Track41_62"
    INDEX 01 01:28:73
  TRACK 63 AUDIO
    TITLE "Disc3Track41_63"
    INDEX 01 01:30:14
  TRACK 64 AUDIO
    TITLE "Disc3Track41_64"
    INDEX 01 01:34:07
  TRACK 65 AUDIO
    TITLE "Disc3Track41_65"
    INDEX 01 01:34:39
  TRACK 66 AUDIO
    TITLE "Disc3Track41_66"
    INDEX 01 01:35:64
  TRACK 67 AUDIO
    TITLE "Disc3Track41_67"
    INDEX 01 01:37:49
  TRACK 68 AUDIO
    TITLE "Disc3Track41_68"
    INDEX 01 01:38:72
  TRACK 69 AUDIO
    TITLE "Disc3Track41_69"
    INDEX 01 01:42:68
  TRACK 70 AUDIO
    TITLE "Disc3Track41_70"
    INDEX 01 01:43:26
  TRACK 71 AUDIO
    TITLE "Disc3Track41_71"
    INDEX 01 01:44:55
  TRACK 72 AUDIO
    TITLE "Disc3Track41_72"
    INDEX 01 01:46:32
  TRACK 73 AUDIO
    TITLE "Disc3Track41_73"
    INDEX 01 01:47:63
  TRACK 74 AUDIO
    TITLE "Disc3Track41_74"
    INDEX 01 01:48:19
  TRACK 75 AUDIO
    TITLE "Disc3Track41_75"
    INDEX 01 01:49:52
  TRACK 76 AUDIO
    TITLE "Disc3Track41_76"
    INDEX 01 01:52:70
  TRACK 77 AUDIO
    TITLE "Disc3Track41_77"
    INDEX 01 01:54:28
  TRACK 78 AUDIO
    TITLE "Disc3Track41_78"
    INDEX 01 01:56:68
  TRACK 79 AUDIO
    TITLE "Disc3Track41_79"
    INDEX 01 01:57:26
  TRACK 80 AUDIO
    TITLE "Disc3Track41_80"
    INDEX 01 01:58:43
  TRACK 81 AUDIO
    TITLE "Disc3Track41_81"
    INDEX 01 01:59:45
  TRACK 82 AUDIO
    TITLE "Disc3Track41_82"
    INDEX 01 02:00:64
  TRACK 83 AUDIO
    TITLE "Disc3Track41_83"
    INDEX 01 02:01:26
  TRACK 84 AUDIO
    TITLE "Disc3Track41_84"
    INDEX 01 02:02:59
  TRACK 85 AUDIO
    TITLE "Disc3Track41_85"
    INDEX 01 02:04:14
  TRACK 86 AUDIO
    TITLE "Disc3Track41_86"
    INDEX 01 02:05:49
  TRACK 87 AUDIO
    TITLE "Disc3Track41_87"
    INDEX 01 02:06:11
  TRACK 88 AUDIO
    TITLE "Disc3Track41_88"
    INDEX 01 02:07:28
  TRACK 89 AUDIO
    TITLE "Disc3Track41_89"
    INDEX 01 02:08:42
  TRACK 90 AUDIO
    TITLE "Disc3Track41_90"
    INDEX 01 02:09:61
